<?xml version="1.0" standalone="no"?>
<svg viewBox="0 0 200 200" xmlns="http://www.w3.org/2000/svg">
  <path fill="#0D6EFD" d="M35.7,-63.7C45.9,-56,53.4,-45.6,57.8,-34.5C62.1,-23.5,63.3,-11.7,61.8,-0.8C60.3,10,56.3,20.1,51.6,30.6C46.9,41.1,41.7,52.1,33,56.9C24.3,61.7,12.2,60.2,-1.3,62.5C-14.8,64.7,-29.5,70.7,-37.1,65.3C-44.7,59.9,-45.1,43.1,-52.4,30.3C-59.6,17.5,-73.7,8.8,-79.8,-3.5C-85.9,-15.8,-84,-31.6,-74.4,-40.2C-64.7,-48.8,-47.2,-50.1,-33.5,-55.8C-19.8,-61.5,-9.9,-71.5,1.4,-74C12.8,-76.5,25.5,-71.4,35.7,-63.7Z" transform="translate(100 100)" />
</svg>
